<svg width="754" height="200" viewBox="0 0 754 200" fill="none" xmlns="http://www.w3.org/2000/svg">
<g clip-path="url(#clip0_2_63)">
<rect width="754" height="200" rx="10" fill="url(#paint0_linear_2_63)"/>
<path d="M0 200L0 0C128.18 13.2382 178.691 52.0768 200 200L0 200Z" fill="#ECB544"/>
<path d="M16 134H66V184H16L16 134Z" fill="#A47C2C"/>
<path d="M82 134L132 134V184L82 184V134Z" fill="#A47C2C"/>
<path d="M16 68L66 68V118L16 118L16 68Z" fill="#A47C2C"/>
<path d="M82 68L132 68L132 118L82 118V68Z" fill="#A47C2C"/>
<path d="M20 72L62 72L62 114L20 114L20 72Z" fill="#594720"/>
<path d="M20 138H62L62 180H20L20 138Z" fill="#594720"/>
<path d="M86 138H128V180H86V138Z" fill="#594720"/>
<path d="M86 72L128 72V114L86 114V72Z" fill="#594720"/>
<path d="M170.5 134C175.874 153.234 178.377 164.156 181.5 184H148V134H170.5Z" fill="#A47C2C"/>
<path d="M168.119 138C171.969 154.156 173.763 163.331 176 180H152V138H168.119Z" fill="#594720"/>
<path d="M66 29C47.3966 23.6794 36.5006 21.2139 16 18L16 52L66 52L66 29Z" fill="#A47C2C"/>
<path d="M62 31.4118C46.3732 27.3431 37.2205 25.4577 20 23L20 49L62 49V31.4118Z" fill="#594720"/>
<path d="M82 52L82 34C95.5102 39.38 103.094 43.3345 116.5 52L82 52Z" fill="#A47C2C"/>
<path d="M86 49L86 39C93.832 41.9889 98.2283 44.1859 106 49H86Z" fill="#594720"/>
<path d="M148 118L148 84.5C155.828 96.8421 159.742 104.058 165 118H148Z" fill="#A47C2C"/>
<path d="M152 114V99C155.223 104.526 156.835 107.757 159 114H152Z" fill="#594720"/>
<path d="M227.52 131L220.48 41.656H230.08L233.792 92.856L235.712 119.864H236.736L248.512 64.952H260.544L272.32 119.864H273.344L275.264 92.856L278.976 41.656H288.32L281.28 131H265.792L254.912 77.624H253.888L243.008 131H227.52ZM354.318 131L346.766 105.528H315.406L307.854 131H296.718L324.11 41.656H338.318L365.71 131H354.318ZM331.662 53.048H330.51L317.966 96.184H344.206L331.662 53.048ZM381.02 131V41.656H437.34V51H391.772V81.08H433.5V90.424H391.772V131H381.02ZM461.61 131V41.656H472.362V121.656H514.73V131H461.61ZM534.52 131V41.656H589.56V51H545.272V81.08H588.024V90.424H545.272V121.656H589.56V131H534.52ZM625.99 91.192C625.99 84.9627 626.673 78.9893 628.038 73.272C629.489 67.4693 631.409 62.0933 633.798 57.144C636.273 52.1947 639.131 47.7573 642.374 43.832C645.617 39.8213 649.03 36.4507 652.614 33.72H662.982C659.227 36.536 655.686 39.8213 652.358 43.576C649.115 47.2453 646.214 51.2987 643.654 55.736C641.179 60.088 639.217 64.824 637.766 69.944C636.315 74.9787 635.59 80.2267 635.59 85.688V96.696C635.59 102.157 636.315 107.448 637.766 112.568C639.217 117.603 641.179 122.339 643.654 126.776C646.214 131.128 649.115 135.139 652.358 138.808C655.686 142.563 659.227 145.848 662.982 148.664H652.614C649.03 146.019 645.617 142.691 642.374 138.68C639.131 134.669 636.273 130.189 633.798 125.24C631.409 120.291 629.489 114.957 628.038 109.24C626.673 103.437 625.99 97.4213 625.99 91.192ZM727.06 91.192C727.06 97.4213 726.335 103.437 724.884 109.24C723.519 114.957 721.599 120.291 719.124 125.24C716.735 130.189 713.919 134.669 710.676 138.68C707.433 142.691 704.02 146.019 700.436 148.664H690.068C693.737 145.848 697.236 142.563 700.564 138.808C703.892 135.139 706.793 131.128 709.268 126.776C711.828 122.339 713.833 117.603 715.284 112.568C716.735 107.448 717.46 102.157 717.46 96.696V85.688C717.46 80.2267 716.735 74.9787 715.284 69.944C713.833 64.824 711.828 60.088 709.268 55.736C706.793 51.2987 703.892 47.2453 700.564 43.576C697.236 39.8213 693.737 36.536 690.068 33.72H700.436C704.02 36.4507 707.433 39.8213 710.676 43.832C713.919 47.7573 716.735 52.1947 719.124 57.144C721.599 62.0933 723.519 67.4693 724.884 73.272C726.335 78.9893 727.06 84.9627 727.06 91.192Z" fill="black"/>
<path d="M229.344 191L233.088 168.664H247.424L246.912 171.64H236.096L234.976 178.2H244.864L244.352 181.144H234.496L232.864 191H229.344ZM253.556 191.384C251.913 191.384 250.697 190.829 249.908 189.72C249.118 188.611 248.724 187.032 248.724 184.984C248.724 183.661 248.873 182.349 249.172 181.048C249.47 179.747 249.929 178.584 250.548 177.56C251.166 176.536 251.945 175.704 252.884 175.064C253.844 174.424 254.974 174.104 256.276 174.104C257.492 174.104 258.462 174.392 259.188 174.968C259.934 175.544 260.457 176.376 260.756 177.464H260.916L261.396 174.488H264.819L262.548 188.248H264.564L264.083 191H262.004C260.894 191 260.094 190.723 259.604 190.168C259.134 189.613 258.985 188.867 259.156 187.928L259.284 187.096H259.156C258.537 188.376 257.801 189.411 256.948 190.2C256.094 190.989 254.964 191.384 253.556 191.384ZM254.932 188.6C256.19 188.6 257.3 188.024 258.26 186.872C258.601 186.467 258.932 185.965 259.252 185.368C259.572 184.771 259.796 184.088 259.924 183.32L260.468 180.024C260.638 179.064 260.436 178.307 259.86 177.752C259.305 177.176 258.462 176.888 257.332 176.888C255.945 176.888 254.878 177.325 254.132 178.2C253.406 179.053 252.926 180.152 252.692 181.496L252.308 183.768C252.265 183.96 252.233 184.184 252.212 184.44C252.19 184.675 252.18 184.909 252.18 185.144C252.18 186.189 252.393 187.032 252.82 187.672C253.268 188.291 253.972 188.6 254.932 188.6ZM274.823 191.384C273.202 191.384 271.794 191.139 270.599 190.648C269.404 190.136 268.476 189.4 267.815 188.44L269.991 186.52C271.164 188.013 272.86 188.76 275.079 188.76C276.338 188.76 277.319 188.536 278.023 188.088C278.748 187.64 279.111 187 279.111 186.168C279.111 185.528 278.908 185.091 278.503 184.856C278.119 184.6 277.628 184.419 277.031 184.312L274.631 183.896C274.012 183.789 273.415 183.64 272.839 183.448C272.284 183.256 271.794 183 271.367 182.68C270.94 182.339 270.588 181.912 270.311 181.4C270.055 180.888 269.927 180.259 269.927 179.512C269.927 178.616 270.108 177.837 270.471 177.176C270.855 176.493 271.367 175.928 272.007 175.48C272.668 175.011 273.436 174.669 274.311 174.456C275.186 174.221 276.135 174.104 277.159 174.104C278.631 174.104 279.9 174.328 280.967 174.776C282.055 175.203 282.908 175.789 283.527 176.536L281.415 178.552C281.095 178.104 280.572 177.688 279.847 177.304C279.122 176.92 278.162 176.728 276.967 176.728C275.772 176.728 274.855 176.941 274.215 177.368C273.596 177.795 273.287 178.392 273.287 179.16C273.287 179.821 273.49 180.269 273.895 180.504C274.322 180.739 274.834 180.909 275.431 181.016L277.831 181.464C278.428 181.571 279.004 181.72 279.559 181.912C280.114 182.083 280.604 182.328 281.031 182.648C281.479 182.947 281.831 183.352 282.087 183.864C282.364 184.355 282.503 184.973 282.503 185.72C282.503 186.595 282.322 187.384 281.959 188.088C281.596 188.792 281.074 189.389 280.391 189.88C279.73 190.371 278.919 190.744 277.959 191C277.02 191.256 275.975 191.384 274.823 191.384ZM293.723 191.384C292.699 191.384 291.931 191.107 291.419 190.552C290.907 189.997 290.651 189.24 290.651 188.28C290.651 188.088 290.672 187.864 290.715 187.608C290.757 187.331 290.8 187.043 290.843 186.744L292.411 177.272H287.867L288.315 174.488H291.387C292.005 174.488 292.464 174.371 292.763 174.136C293.061 173.88 293.264 173.443 293.371 172.824L294.075 168.664H297.275L296.315 174.488H302.971L302.523 177.272H295.835L294.01 188.216L294.651 188.536L300.923 184.088L302.619 186.136L299.707 188.312C298.981 188.867 298.341 189.336 297.787 189.72C297.253 190.104 296.752 190.424 296.283 190.68C295.813 190.915 295.376 191.085 294.97 191.192C294.565 191.32 294.149 191.384 293.723 191.384ZM312.974 191.32C312.078 191.32 311.438 191.16 311.054 190.84C310.691 190.499 310.51 190.083 310.51 189.592C310.51 189.421 310.521 189.24 310.542 189.048C310.585 188.856 310.627 188.611 310.67 188.312C310.777 187.629 311.075 187.096 311.566 186.712C312.078 186.328 312.782 186.136 313.678 186.136C314.574 186.136 315.203 186.307 315.566 186.648C315.95 186.968 316.142 187.373 316.142 187.864C316.142 188.035 316.121 188.216 316.078 188.408C316.057 188.6 316.025 188.845 315.982 189.144C315.875 189.827 315.566 190.36 315.054 190.744C314.563 191.128 313.87 191.32 312.974 191.32ZM349.237 191.576C347.296 191.576 345.824 191.043 344.821 189.976C343.84 188.909 343.349 187.565 343.349 185.944C343.349 184.792 343.584 183.64 344.053 182.488C344.544 181.315 345.237 180.291 346.133 179.416C347.029 178.541 348.074 177.955 349.269 177.656C348.608 177.187 348.117 176.621 347.797 175.96C347.477 175.277 347.317 174.563 347.317 173.816C347.317 172.707 347.616 171.619 348.213 170.552C348.832 169.485 349.674 168.621 350.741 167.96C351.829 167.277 353.024 166.936 354.325 166.936C355.669 166.936 356.768 167.288 357.621 167.992C358.474 168.696 358.901 169.677 358.901 170.936C358.901 171.875 358.666 172.664 358.197 173.304C357.728 173.944 357.173 174.264 356.533 174.264C355.957 174.264 355.456 173.976 355.029 173.4C355.413 173.272 355.744 172.92 356.021 172.344C356.298 171.768 356.437 171.192 356.437 170.616C356.437 169.997 356.266 169.549 355.925 169.272C355.584 168.973 355.168 168.824 354.677 168.824C354.058 168.824 353.493 169.048 352.981 169.496C352.49 169.923 352.106 170.488 351.829 171.192C351.552 171.875 351.413 172.589 351.413 173.336C351.413 174.36 351.68 175.267 352.213 176.056C352.746 176.824 353.557 177.347 354.645 177.624C353.557 177.859 352.576 178.392 351.701 179.224C350.826 180.056 350.144 181.027 349.653 182.136C349.162 183.224 348.917 184.269 348.917 185.272C348.917 186.232 349.162 187.011 349.653 187.608C350.165 188.205 350.933 188.504 351.957 188.504C353.024 188.504 354.133 188.216 355.285 187.64C356.458 187.043 357.322 186.243 357.877 185.24L358.613 185.56C357.781 187.395 356.501 188.856 354.773 189.944C353.045 191.032 351.2 191.576 349.237 191.576ZM360.981 191.192C359.957 191.192 359.125 190.872 358.485 190.232C357.866 189.592 357.556 188.632 357.556 187.352C357.556 186.819 357.642 186.125 357.812 185.272L361.237 169.24L365.973 168.6L362.293 185.88C362.207 186.2 362.165 186.541 362.165 186.904C362.165 187.331 362.261 187.64 362.453 187.832C362.666 188.003 363.007 188.088 363.477 188.088C364.095 188.088 364.671 187.832 365.205 187.32C365.738 186.787 366.122 186.104 366.357 185.272H367.701C366.911 187.576 365.898 189.144 364.661 189.976C363.423 190.787 362.197 191.192 360.981 191.192ZM370.92 191.192C369.341 191.192 368.114 190.787 367.24 189.976C366.365 189.144 365.928 187.853 365.928 186.104C365.928 184.632 366.216 183.011 366.792 181.24C367.368 179.469 368.306 177.944 369.608 176.664C370.909 175.363 372.562 174.712 374.568 174.712C376.914 174.712 378.088 175.736 378.088 177.784C378.088 178.979 377.746 180.077 377.064 181.08C376.381 182.083 375.474 182.893 374.344 183.512C373.213 184.109 372.008 184.451 370.728 184.536C370.685 185.176 370.664 185.603 370.664 185.816C370.664 186.861 370.845 187.576 371.208 187.96C371.57 188.323 372.157 188.504 372.968 188.504C374.12 188.504 375.101 188.237 375.912 187.704C376.744 187.171 377.65 186.36 378.632 185.272H379.72C377.352 189.219 374.418 191.192 370.92 191.192ZM370.984 183C371.773 182.957 372.52 182.68 373.224 182.168C373.949 181.656 374.525 181.005 374.952 180.216C375.4 179.427 375.624 178.595 375.624 177.72C375.624 176.845 375.357 176.408 374.824 176.408C374.056 176.408 373.298 177.08 372.552 178.424C371.826 179.768 371.304 181.293 370.984 183ZM384.289 199C383.265 199 382.412 198.733 381.729 198.2C381.046 197.667 380.705 196.899 380.705 195.896C380.705 194.68 381.196 193.699 382.177 192.952C383.158 192.227 384.406 191.619 385.921 191.128L386.305 189.432C385.217 190.605 383.937 191.192 382.465 191.192C381.249 191.192 380.236 190.776 379.425 189.944C378.614 189.112 378.209 187.811 378.209 186.04C378.209 184.461 378.518 182.808 379.137 181.08C379.777 179.331 380.716 177.859 381.953 176.664C383.212 175.448 384.705 174.84 386.433 174.84C387.308 174.84 387.958 174.989 388.385 175.288C388.812 175.587 389.025 175.981 389.025 176.472V176.664L389.377 175H393.985L390.817 189.848C391.841 189.507 392.662 188.995 393.281 188.312C393.9 187.629 394.422 186.616 394.849 185.272H396.193C395.617 187.171 394.838 188.568 393.857 189.464C392.876 190.339 391.766 190.936 390.529 191.256L390.049 193.56C389.622 195.629 388.886 197.048 387.841 197.816C386.796 198.605 385.612 199 384.289 199ZM384.545 188.088C385.036 188.088 385.537 187.864 386.049 187.416C386.561 186.968 386.913 186.36 387.105 185.592L388.737 178.008C388.737 177.752 388.63 177.496 388.417 177.24C388.204 176.963 387.873 176.824 387.425 176.824C386.572 176.824 385.804 177.325 385.121 178.328C384.438 179.309 383.905 180.504 383.521 181.912C383.137 183.299 382.945 184.525 382.945 185.592C382.945 186.659 383.094 187.341 383.393 187.64C383.713 187.939 384.097 188.088 384.545 188.088ZM383.553 196.504C383.916 196.504 384.268 196.259 384.609 195.768C384.95 195.277 385.217 194.573 385.409 193.656L385.601 192.728C383.51 193.496 382.465 194.403 382.465 195.448C382.465 195.725 382.561 195.971 382.753 196.184C382.945 196.397 383.212 196.504 383.553 196.504ZM398.684 191.192C397.468 191.192 396.454 190.776 395.644 189.944C394.833 189.112 394.428 187.811 394.428 186.04C394.428 184.461 394.737 182.808 395.356 181.08C395.996 179.331 396.934 177.859 398.172 176.664C399.43 175.448 400.924 174.84 402.652 174.84C403.526 174.84 404.177 174.989 404.604 175.288C405.03 175.587 405.244 175.981 405.244 176.472V176.696L405.596 175H410.204L407.9 185.88C407.814 186.2 407.772 186.541 407.772 186.904C407.772 187.821 408.209 188.28 409.084 188.28C409.681 188.28 410.193 188.003 410.62 187.448C411.068 186.893 411.42 186.168 411.676 185.272H413.02C412.23 187.576 411.249 189.144 410.076 189.976C408.924 190.787 407.761 191.192 406.588 191.192C405.692 191.192 404.966 190.947 404.412 190.456C403.878 189.944 403.558 189.208 403.452 188.248C402.833 189.123 402.14 189.837 401.372 190.392C400.625 190.925 399.729 191.192 398.684 191.192ZM400.764 188.088C401.297 188.088 401.82 187.843 402.332 187.352C402.865 186.84 403.228 186.147 403.42 185.272L404.956 178.04C404.956 177.763 404.849 177.496 404.636 177.24C404.422 176.963 404.092 176.824 403.644 176.824C402.79 176.824 402.022 177.325 401.34 178.328C400.657 179.309 400.124 180.504 399.74 181.912C399.356 183.299 399.164 184.525 399.164 185.592C399.164 186.659 399.313 187.341 399.612 187.64C399.932 187.939 400.316 188.088 400.764 188.088ZM423.24 191.192C421.938 191.192 420.978 190.851 420.36 190.168C419.762 189.464 419.464 188.6 419.464 187.576C419.464 187.128 419.517 186.627 419.624 186.072C419.73 185.496 419.837 184.941 419.944 184.408C420.072 183.875 420.157 183.533 420.2 183.384C420.37 182.637 420.53 181.901 420.68 181.176C420.829 180.451 420.904 179.864 420.904 179.416C420.904 178.328 420.52 177.784 419.752 177.784C419.197 177.784 418.706 178.061 418.28 178.616C417.853 179.149 417.512 179.853 417.256 180.728L415.08 191H410.471L413.864 175H418.472L418.12 176.664C419.186 175.469 420.434 174.872 421.864 174.872C422.952 174.872 423.816 175.171 424.456 175.768C425.096 176.365 425.416 177.272 425.416 178.488C425.416 179.107 425.341 179.8 425.192 180.568C425.042 181.315 424.829 182.232 424.552 183.32C424.381 183.981 424.221 184.632 424.072 185.272C423.944 185.891 423.88 186.381 423.88 186.744C423.88 187.171 423.976 187.501 424.168 187.736C424.36 187.971 424.69 188.088 425.16 188.088C425.8 188.088 426.312 187.864 426.696 187.416C427.08 186.947 427.464 186.232 427.847 185.272H429.192C428.402 187.619 427.485 189.197 426.44 190.008C425.416 190.797 424.349 191.192 423.24 191.192ZM430.852 191.192C429.764 191.192 428.953 190.861 428.42 190.2C427.908 189.539 427.652 188.664 427.652 187.576C427.652 187.021 427.716 186.456 427.844 185.88L429.892 176.28H428.836L429.092 175H430.148L431.108 170.584L435.844 169.944C435.652 170.755 435.545 171.235 435.524 171.384C435.374 171.981 435.118 173.187 434.756 175H436.676L436.42 176.28H434.5L432.452 185.88C432.345 186.349 432.292 186.723 432.292 187C432.292 187.768 432.665 188.152 433.412 188.152C433.796 188.152 434.073 188.12 434.244 188.056C433.817 189.293 433.316 190.125 432.74 190.552C432.164 190.979 431.534 191.192 430.852 191.192ZM440.208 191.128C439.504 191.128 438.906 190.883 438.416 190.392C437.925 189.901 437.68 189.304 437.68 188.6C437.68 187.896 437.925 187.299 438.416 186.808C438.906 186.296 439.504 186.04 440.208 186.04C440.912 186.04 441.509 186.296 442 186.808C442.512 187.299 442.768 187.896 442.768 188.6C442.768 189.304 442.512 189.901 442 190.392C441.509 190.883 440.912 191.128 440.208 191.128ZM470.457 191.32C468.943 191.32 467.695 190.344 466.713 188.392C465.743 186.44 465.257 183.587 465.257 179.832C465.257 178.445 465.364 177.069 465.577 175.704C465.801 174.339 466.132 173.096 466.569 171.976C467.017 170.845 467.572 169.944 468.233 169.272C468.905 168.589 469.689 168.248 470.585 168.248C471.204 168.248 471.737 168.461 472.185 168.888C472.644 169.315 472.996 169.853 473.241 170.504C473.497 171.144 473.625 171.789 473.625 172.44C473.625 172.973 473.535 173.379 473.353 173.656C473.183 173.923 472.921 174.056 472.569 174.056C472.185 174.056 471.903 173.939 471.721 173.704C471.551 173.459 471.465 173.117 471.465 172.68C471.465 172.381 471.513 172.131 471.609 171.928C471.716 171.715 471.817 171.496 471.913 171.272C472.009 171.037 472.057 170.755 472.057 170.424C472.057 170.04 471.951 169.741 471.737 169.528C471.524 169.304 471.273 169.192 470.985 169.192C470.548 169.192 470.159 169.421 469.817 169.88C469.476 170.328 469.177 170.936 468.921 171.704C468.676 172.472 468.473 173.32 468.313 174.248C468.153 175.176 468.031 176.125 467.945 177.096C467.871 178.056 467.833 178.957 467.833 179.8C467.833 181.016 467.876 182.163 467.961 183.24C468.057 184.317 468.191 185.293 468.361 186.168C468.532 187.043 468.735 187.795 468.969 188.424C469.215 189.053 469.487 189.544 469.785 189.896C470.084 190.237 470.409 190.408 470.761 190.408C471.167 190.408 471.513 190.275 471.801 190.008C472.089 189.731 472.329 189.389 472.521 188.984C472.724 188.579 472.879 188.179 472.985 187.784L473.785 188.184C473.593 188.739 473.343 189.256 473.033 189.736C472.735 190.205 472.372 190.589 471.945 190.888C471.529 191.176 471.033 191.32 470.457 191.32ZM479.842 191.352C479.255 191.352 478.695 191.16 478.162 190.776C477.639 190.392 477.17 189.827 476.754 189.08C476.338 188.333 476.012 187.416 475.778 186.328C475.543 185.24 475.426 183.987 475.426 182.568C475.426 181.021 475.548 179.709 475.794 178.632C476.05 177.555 476.386 176.685 476.802 176.024C477.228 175.352 477.703 174.867 478.226 174.568C478.759 174.259 479.298 174.104 479.842 174.104C480.386 174.104 480.919 174.259 481.442 174.568C481.975 174.867 482.455 175.352 482.882 176.024C483.308 176.685 483.65 177.555 483.906 178.632C484.162 179.709 484.29 181.021 484.29 182.568C484.29 183.987 484.167 185.24 483.922 186.328C483.687 187.416 483.362 188.333 482.946 189.08C482.53 189.827 482.055 190.392 481.522 190.776C480.988 191.16 480.428 191.352 479.842 191.352ZM479.842 190.408C480.428 190.408 480.903 189.768 481.266 188.488C481.628 187.197 481.81 185.224 481.81 182.568C481.81 179.955 481.628 178.045 481.266 176.84C480.903 175.635 480.428 175.032 479.842 175.032C479.255 175.032 478.78 175.635 478.418 176.84C478.055 178.045 477.874 179.955 477.874 182.568C477.874 185.224 478.055 187.197 478.418 188.488C478.78 189.768 479.255 190.408 479.842 190.408ZM485.7 191V190.104H487.3V175.144H485.7V174.248H489.652V176.12C489.727 175.853 489.876 175.565 490.1 175.256C490.335 174.936 490.644 174.664 491.028 174.44C491.423 174.216 491.876 174.104 492.388 174.104C492.89 174.104 493.375 174.227 493.844 174.472C494.314 174.717 494.698 175.192 494.996 175.896C495.295 176.6 495.444 177.64 495.444 179.016V190.104H497.012V191H491.716V190.104H493.044V179.288C493.044 177.923 492.927 176.936 492.692 176.328C492.458 175.72 492.084 175.416 491.572 175.416C491.306 175.416 491.06 175.517 490.836 175.72C490.612 175.923 490.415 176.189 490.244 176.52C490.074 176.851 489.94 177.213 489.844 177.608C489.759 177.992 489.711 178.365 489.7 178.728V190.104H491.012V191H485.7ZM502.894 191.336C502.158 191.336 501.496 191.096 500.91 190.616C500.334 190.136 499.843 189.485 499.438 188.664C499.043 187.832 498.739 186.888 498.526 185.832C498.312 184.765 498.206 183.651 498.206 182.488C498.206 181.069 498.35 179.837 498.638 178.792C498.926 177.736 499.304 176.867 499.774 176.184C500.243 175.491 500.76 174.973 501.326 174.632C501.891 174.28 502.44 174.104 502.974 174.104C503.678 174.104 504.27 174.312 504.75 174.728C505.24 175.133 505.608 175.656 505.854 176.296C506.11 176.936 506.238 177.619 506.238 178.344C506.238 178.845 506.147 179.235 505.966 179.512C505.784 179.779 505.528 179.912 505.198 179.912C504.867 179.912 504.606 179.795 504.414 179.56C504.232 179.315 504.142 178.995 504.142 178.6C504.142 178.344 504.184 178.131 504.27 177.96C504.355 177.789 504.44 177.619 504.526 177.448C504.611 177.267 504.654 177.048 504.654 176.792C504.654 176.227 504.504 175.795 504.206 175.496C503.907 175.187 503.539 175.032 503.102 175.032C502.654 175.032 502.28 175.256 501.982 175.704C501.683 176.141 501.438 176.723 501.246 177.448C501.064 178.163 500.931 178.957 500.846 179.832C500.771 180.696 500.734 181.549 500.734 182.392C500.734 183.256 500.771 184.157 500.846 185.096C500.92 186.024 501.048 186.888 501.23 187.688C501.411 188.477 501.662 189.123 501.982 189.624C502.312 190.115 502.734 190.36 503.246 190.36C503.843 190.36 504.307 190.189 504.638 189.848C504.979 189.496 505.219 189.085 505.358 188.616L506.046 189.176C505.854 189.688 505.496 190.179 504.974 190.648C504.462 191.107 503.768 191.336 502.894 191.336ZM507.559 191V190.104H509.191V175.144H507.559V174.248H511.591V190.104H513.255V191H507.559ZM510.375 171.208C509.874 171.208 509.453 171.037 509.111 170.696C508.77 170.355 508.599 169.944 508.599 169.464C508.599 168.973 508.77 168.557 509.111 168.216C509.453 167.875 509.874 167.704 510.375 167.704C510.834 167.704 511.234 167.875 511.575 168.216C511.917 168.557 512.087 168.973 512.087 169.464C512.087 169.944 511.917 170.355 511.575 170.696C511.234 171.037 510.834 171.208 510.375 171.208ZM518.104 191.352C517.57 191.352 517.149 191.277 516.84 191.128C516.53 190.989 516.285 190.851 516.104 190.712C515.933 190.573 515.773 190.504 515.624 190.504C515.496 190.504 515.405 190.547 515.352 190.632C515.309 190.717 515.288 190.84 515.288 191H514.536V186.248H515.432C515.485 186.888 515.576 187.469 515.704 187.992C515.832 188.504 516.002 188.947 516.216 189.32C516.429 189.683 516.69 189.965 517 190.168C517.309 190.36 517.666 190.456 518.072 190.456C518.488 190.456 518.818 190.344 519.064 190.12C519.309 189.896 519.485 189.613 519.592 189.272C519.709 188.92 519.768 188.557 519.768 188.184C519.768 187.661 519.682 187.149 519.512 186.648C519.341 186.147 519.08 185.635 518.728 185.112C518.376 184.589 517.933 184.04 517.4 183.464C516.621 182.632 515.965 181.779 515.432 180.904C514.909 180.029 514.648 178.984 514.648 177.768C514.648 176.936 514.802 176.253 515.112 175.72C515.432 175.176 515.842 174.771 516.344 174.504C516.845 174.237 517.378 174.104 517.944 174.104C518.37 174.104 518.712 174.157 518.968 174.264C519.234 174.371 519.448 174.477 519.608 174.584C519.768 174.68 519.901 174.728 520.008 174.728C520.104 174.728 520.173 174.691 520.216 174.616C520.258 174.531 520.28 174.408 520.28 174.248H521.08V178.856H520.184C520.141 178.237 520.066 177.688 519.96 177.208C519.853 176.728 519.709 176.328 519.528 176.008C519.346 175.677 519.128 175.432 518.872 175.272C518.616 175.101 518.317 175.016 517.976 175.016C517.453 175.016 517.042 175.208 516.744 175.592C516.456 175.976 516.312 176.483 516.312 177.112C516.312 177.827 516.509 178.499 516.904 179.128C517.309 179.757 517.88 180.467 518.616 181.256C519.213 181.896 519.725 182.531 520.152 183.16C520.589 183.779 520.925 184.419 521.16 185.08C521.394 185.731 521.512 186.445 521.512 187.224C521.512 188.067 521.373 188.797 521.096 189.416C520.829 190.035 520.44 190.515 519.928 190.856C519.416 191.187 518.808 191.352 518.104 191.352ZM527.56 191.336C526.792 191.336 526.125 191.101 525.56 190.632C525.005 190.163 524.552 189.523 524.2 188.712C523.848 187.901 523.586 186.973 523.416 185.928C523.256 184.872 523.176 183.757 523.176 182.584C523.176 181.155 523.293 179.907 523.528 178.84C523.762 177.773 524.082 176.893 524.488 176.2C524.904 175.496 525.368 174.973 525.88 174.632C526.402 174.28 526.946 174.104 527.512 174.104C528.184 174.104 528.765 174.307 529.256 174.712C529.746 175.107 530.152 175.645 530.472 176.328C530.792 177 531.032 177.768 531.192 178.632C531.352 179.485 531.432 180.365 531.432 181.272C531.432 181.496 531.432 181.709 531.432 181.912C531.432 182.115 531.421 182.323 531.4 182.536H525.4V181.64H529.064C529.064 180.253 529.016 179.064 528.92 178.072C528.834 177.08 528.68 176.323 528.456 175.8C528.232 175.267 527.917 175 527.512 175C527.128 175 526.792 175.261 526.504 175.784C526.226 176.307 526.008 177.096 525.848 178.152C525.688 179.208 525.608 180.547 525.608 182.168C525.608 183.32 525.634 184.392 525.688 185.384C525.752 186.376 525.864 187.245 526.024 187.992C526.184 188.739 526.408 189.32 526.696 189.736C526.984 190.152 527.362 190.36 527.832 190.36C528.525 190.36 529.069 190.163 529.464 189.768C529.869 189.363 530.141 188.963 530.28 188.568L531.064 189.016C530.85 189.624 530.434 190.163 529.816 190.632C529.197 191.101 528.445 191.336 527.56 191.336ZM534.745 191.368C534.286 191.368 533.897 191.203 533.577 190.872C533.257 190.541 533.097 190.147 533.097 189.688C533.097 189.219 533.257 188.824 533.577 188.504C533.897 188.184 534.286 188.024 534.745 188.024C535.193 188.024 535.582 188.184 535.913 188.504C536.243 188.824 536.409 189.219 536.409 189.688C536.409 190.147 536.243 190.541 535.913 190.872C535.582 191.203 535.193 191.368 534.745 191.368Z" fill="black"/>
<path d="M216 158H727.001" stroke="black" stroke-width="3"/>
</g>
<rect x="1.5" y="1.5" width="751" height="197" rx="8.5" stroke="black" stroke-width="3"/>
<defs>
<linearGradient id="paint0_linear_2_63" x1="0" y1="100" x2="754" y2="100" gradientUnits="userSpaceOnUse">
<stop offset="0.235" stop-color="#ECB544"/>
<stop offset="1" stop-color="#FDCC9B"/>
</linearGradient>
<clipPath id="clip0_2_63">
<rect width="754" height="200" rx="10" fill="white"/>
</clipPath>
</defs>
</svg>
