<svg width="200" height="200" viewBox="0 0 200 200" fill="none" xmlns="http://www.w3.org/2000/svg">
<rect width="200" height="200" fill="#1E1E1E"/>
<path d="M0 200L0 0C128.18 13.2382 178.691 52.0768 200 200L0 200Z" fill="#ECB544"/>
<path d="M16 134H66V184H16L16 134Z" fill="#A47C2C"/>
<path d="M82 134L132 134V184L82 184V134Z" fill="#A47C2C"/>
<path d="M16 68L66 68V118L16 118L16 68Z" fill="#A47C2C"/>
<path d="M82 68L132 68L132 118L82 118V68Z" fill="#A47C2C"/>
<path d="M20 72L62 72L62 114L20 114L20 72Z" fill="#594720"/>
<path d="M20 138H62L62 180H20L20 138Z" fill="#594720"/>
<path d="M86 138H128V180H86V138Z" fill="#594720"/>
<path d="M86 72L128 72V114L86 114V72Z" fill="#594720"/>
<path d="M170.5 134C175.874 153.234 178.377 164.156 181.5 184H148V134H170.5Z" fill="#A47C2C"/>
<path d="M168.119 138C171.969 154.156 173.763 163.331 176 180H152V138H168.119Z" fill="#594720"/>
<path d="M66 29C47.3966 23.6794 36.5006 21.2139 16 18L16 52L66 52L66 29Z" fill="#A47C2C"/>
<path d="M62 31.4118C46.3732 27.3431 37.2205 25.4577 20 23L20 49L62 49V31.4118Z" fill="#594720"/>
<path d="M82 52L82 34C95.5102 39.38 103.094 43.3345 116.5 52L82 52Z" fill="#A47C2C"/>
<path d="M86 49L86 39C93.832 41.9889 98.2283 44.1859 106 49H86Z" fill="#594720"/>
<path d="M148 118L148 84.5C155.828 96.8421 159.742 104.058 165 118H148Z" fill="#A47C2C"/>
<path d="M152 114V99C155.223 104.526 156.835 107.757 159 114H152Z" fill="#594720"/>
</svg>
